# xmcd
#
# Track frame offsets:
#	151
#	13949
#	26815
#	38889
#	50627
#	61768
#	74549
#	88503
#	100510
#	114267
#	128748
#	142551
#	159040
#	173097
#	189300
#	202618
#	213517
#	231733
#	248445
#	263503
#	275285
#
# Disc length: 3871 seconds
#
# Revision: 1
# Processed by: cddbd v1.4PL0 Copyright (c) Steve Scherf et al.
# Submitted via: audiograbber 1.82.02
#
DISCID=0d0f1d15
DTITLE=Gary Stewart - Out Of Hand/Your Place Or Mine
DYEAR=2001
DGENRE=Country
TTITLE0=Drinkin' Thing
TTITLE1=Honky-Tonkin' 
TTITLE2=I See the Want to In Your Eyes
TTITLE3=This Old Heart Won't Let Go
TTITLE4=Draggin' Shackles
TTITLE5=She's Actin' Single (I'm Drinkin' Doubles)
TTITLE6=Back Slider's Wine
TTITLE7=Sweet Country Red
TTITLE8=Out of Hand
TTITLE9=Williamson County
TTITLE10=Your Place or Mine
TTITLE11=Rachel
TTITLE12=Leah
TTITLE13=Drinking Again
TTITLE14=The Blue Ribbon Blues
TTITLE15=Pretend I Never Happened
TTITLE16=I Had to Get Drunk Last Night
TTITLE17=I Ain't Living Long Like This
TTITLE18=Broken Hearted People (Take Me To A Barroom)
TTITLE19=Ten Years of This
TTITLE20=Dancing Eyes
EXTD=
EXTT0=
EXTT1=
EXTT2=
EXTT3=
EXTT4=
EXTT5=
EXTT6=
EXTT7=
EXTT8=
EXTT9=
EXTT10=
EXTT11=
EXTT12=
EXTT13=
EXTT14=
EXTT15=
EXTT16=
EXTT17=
EXTT18=
EXTT19=
EXTT20=
PLAYORDER=
